<svg width="2778" height="564" xmlns="http://www.w3.org/2000/svg" xmlns:xlink="http://www.w3.org/1999/xlink" overflow="hidden"><defs><clipPath id="clip0"><rect x="1246" y="462" width="2778" height="564"/></clipPath><clipPath id="clip1"><rect x="1383" y="601" width="154" height="197"/></clipPath><clipPath id="clip2"><rect x="1383" y="601" width="154" height="197"/></clipPath><clipPath id="clip3"><rect x="1383" y="601" width="154" height="197"/></clipPath></defs><g clip-path="url(#clip0)" transform="translate(-1246 -462)"><path d="M1252.5 559.667C1252.5 508.765 1293.76 467.5 1344.67 467.5L3928.33 467.5C3979.24 467.5 4020.5 508.765 4020.5 559.667L4020.5 928.333C4020.5 979.235 3979.24 1020.5 3928.33 1020.5L1344.67 1020.5C1293.76 1020.5 1252.5 979.235 1252.5 928.333Z" stroke="#2F528F" stroke-width="4.58333" stroke-linecap="butt" stroke-linejoin="miter" stroke-miterlimit="8" stroke-opacity="1" fill="#EDEDED" fill-rule="evenodd" fill-opacity="1"/><rect x="2457.5" y="576.5" width="276" height="243" stroke="#2F528F" stroke-width="4.58333" stroke-linecap="butt" stroke-linejoin="miter" stroke-miterlimit="8" stroke-opacity="1" fill="#767171" fill-opacity="1"/><text fill="#FFFFFF" fill-opacity="1" font-family="IBM Plex Sans,IBM Plex Sans_MSFontService,sans-serif" font-style="normal" font-variant="normal" font-weight="400" font-stretch="normal" font-size="50" text-anchor="start" direction="ltr" writing-mode="lr-tb" unicode-bidi="normal" text-decoration="none" transform="matrix(1 0 0 1 2494.07 655)">Approval  <tspan fill="#FFFFFF" fill-opacity="1" font-family="IBM Plex Sans,IBM Plex Sans_MSFontService,sans-serif" font-style="normal" font-variant="normal" font-weight="400" font-stretch="normal" font-size="50" text-anchor="start" direction="ltr" writing-mode="lr-tb" unicode-bidi="normal" text-decoration="none" x="83.6458" y="60">&amp; </tspan><tspan fill="#FFFFFF" fill-opacity="1" font-family="IBM Plex Sans,IBM Plex Sans_MSFontService,sans-serif" font-style="normal" font-variant="normal" font-weight="400" font-stretch="normal" font-size="50" text-anchor="start" direction="ltr" writing-mode="lr-tb" unicode-bidi="normal" text-decoration="none" x="60.1563" y="121">IPC</tspan></text><rect x="2830.5" y="576.5" width="265" height="243" stroke="#2F528F" stroke-width="4.58333" stroke-linecap="butt" stroke-linejoin="miter" stroke-miterlimit="8" stroke-opacity="1" fill="#767171" fill-opacity="1"/><text fill="#FFFFFF" fill-opacity="1" font-family="IBM Plex Sans,IBM Plex Sans_MSFontService,sans-serif" font-style="normal" font-variant="normal" font-weight="400" font-stretch="normal" font-size="46" text-anchor="start" direction="ltr" writing-mode="lr-tb" unicode-bidi="normal" text-decoration="none" transform="matrix(1 0 0 1 2881.73 658)">Landing <tspan fill="#FFFFFF" fill-opacity="1" font-family="IBM Plex Sans,IBM Plex Sans_MSFontService,sans-serif" font-style="normal" font-variant="normal" font-weight="400" font-stretch="normal" font-size="46" text-anchor="start" direction="ltr" writing-mode="lr-tb" unicode-bidi="normal" text-decoration="none" x="28.9209" y="55">Zone </tspan><tspan fill="#FFFFFF" fill-opacity="1" font-family="IBM Plex Sans,IBM Plex Sans_MSFontService,sans-serif" font-style="normal" font-variant="normal" font-weight="400" font-stretch="normal" font-size="46" text-anchor="start" direction="ltr" writing-mode="lr-tb" unicode-bidi="normal" text-decoration="none" x="-6.59985" y="110">Creation</tspan></text><g clip-path="url(#clip1)"><g clip-path="url(#clip2)"><g clip-path="url(#clip3)"><path d="M102 47.8125C102 61.8957 90.5832 73.3125 76.5 73.3125 62.4167 73.3125 51 61.8957 51 47.8125 51 33.7292 62.4167 22.3125 76.5 22.3125 90.5832 22.3125 102 33.7292 102 47.8125Z" stroke="#4472C4" stroke-width="2.87324" stroke-linecap="butt" stroke-linejoin="miter" stroke-miterlimit="4" stroke-opacity="1" fill="#FFFFFF" fill-rule="nonzero" fill-opacity="1" transform="matrix(1 0 0 1.28105 1384 602)"/><path d="M127.5 130.687 127.5 105.187C127.5 101.362 125.587 97.5375 122.4 94.9875 115.387 89.25 106.462 85.425 97.5375 82.875 91.1625 80.9625 84.15 79.6875 76.5 79.6875 69.4875 79.6875 62.475 80.9625 55.4625 82.875 46.5375 85.425 37.6125 89.8875 30.6 94.9875 27.4125 97.5375 25.5 101.362 25.5 105.187L25.5 130.687 127.5 130.687Z" stroke="#4472C4" stroke-width="2.87324" stroke-linecap="butt" stroke-linejoin="miter" stroke-miterlimit="4" stroke-opacity="1" fill="#FFFFFF" fill-rule="nonzero" fill-opacity="1" transform="matrix(1 0 0 1.28105 1384 602)"/></g></g></g><path d="M1519 689.854 1697.69 689.854 1697.69 692.146 1519 692.146ZM1693.11 677.25 1720.61 691 1693.11 704.75Z" fill="#4472C4" fill-rule="nonzero" fill-opacity="1"/><text fill="#000000" fill-opacity="1" font-family="IBM Plex Sans,IBM Plex Sans_MSFontService,sans-serif" font-style="normal" font-variant="normal" font-weight="400" font-stretch="normal" font-size="32" text-anchor="start" direction="ltr" writing-mode="lr-tb" unicode-bidi="normal" text-decoration="none" transform="matrix(1 0 0 1 1643.32 673)">1<tspan fill="#000000" fill-opacity="1" font-family="IBM Plex Sans,IBM Plex Sans_MSFontService,sans-serif" font-style="normal" font-variant="normal" font-weight="400" font-stretch="normal" font-size="32" text-anchor="start" direction="ltr" writing-mode="lr-tb" unicode-bidi="normal" text-decoration="none" x="372.669" y="4">2</tspan><tspan fill="#000000" fill-opacity="1" font-family="IBM Plex Sans,IBM Plex Sans_MSFontService,sans-serif" font-style="normal" font-variant="normal" font-weight="400" font-stretch="normal" font-size="32" text-anchor="start" direction="ltr" writing-mode="lr-tb" unicode-bidi="normal" text-decoration="none" x="757.237" y="-5">3</tspan><tspan fill="#000000" fill-opacity="1" font-family="IBM Plex Sans,IBM Plex Sans_MSFontService,sans-serif" font-style="normal" font-variant="normal" font-weight="400" font-stretch="normal" font-size="32" text-anchor="start" direction="ltr" writing-mode="lr-tb" unicode-bidi="normal" text-decoration="none" x="1127.13" y="-14">4</tspan><tspan fill="#000000" fill-opacity="1" font-family="IBM Plex Sans,IBM Plex Sans_MSFontService,sans-serif" font-style="normal" font-variant="normal" font-weight="400" font-stretch="normal" font-size="32" text-anchor="start" direction="ltr" writing-mode="lr-tb" unicode-bidi="normal" text-decoration="none" x="1497.07" y="-24">5</tspan></text><rect x="1726.5" y="583.5" width="265" height="243" stroke="#2F528F" stroke-width="4.58333" stroke-linecap="butt" stroke-linejoin="miter" stroke-miterlimit="8" stroke-opacity="1" fill="#767171" fill-opacity="1"/><text fill="#FFFFFF" fill-opacity="1" font-family="IBM Plex Sans,IBM Plex Sans_MSFontService,sans-serif" font-style="normal" font-variant="normal" font-weight="400" font-stretch="normal" font-size="50" text-anchor="start" direction="ltr" writing-mode="lr-tb" unicode-bidi="normal" text-decoration="none" transform="matrix(1 0 0 1 1811.78 723)">IAM<tspan fill="#000000" fill-opacity="1" font-family="IBM Plex Sans,IBM Plex Sans_MSFontService,sans-serif" font-style="normal" font-variant="normal" font-weight="400" font-stretch="normal" font-size="32" text-anchor="start" direction="ltr" writing-mode="lr-tb" unicode-bidi="normal" text-decoration="none" x="1689.09" y="-70">6</tspan><tspan fill="#000000" fill-opacity="1" font-family="IBM Plex Sans,IBM Plex Sans_MSFontService,sans-serif" font-style="normal" font-variant="normal" font-weight="400" font-stretch="normal" font-size="32" text-anchor="start" direction="ltr" writing-mode="lr-tb" unicode-bidi="normal" text-decoration="none" x="1050.77" y="212">7</tspan></text><path d="M2360 689.854 2441.74 689.854 2441.74 692.146 2360 692.146ZM2437.16 677.25 2464.66 691 2437.16 704.75Z" fill="#4472C4" fill-rule="nonzero" fill-opacity="1"/><path d="M1990 698.854 2071.74 698.854 2071.74 701.146 1990 701.146ZM2067.16 686.25 2094.66 700 2067.16 713.75Z" fill="#4472C4" fill-rule="nonzero" fill-opacity="1"/><path d="M2733 686.854 2814.74 686.854 2814.74 689.146 2733 689.146ZM2810.16 674.25 2837.66 688 2810.16 701.75Z" fill="#4472C4" fill-rule="nonzero" fill-opacity="1"/><path d="M2329.5 889.5C2329.5 885.082 2333.08 881.5 2337.5 881.5L2775.5 881.5C2779.92 881.5 2783.5 885.082 2783.5 889.5L2783.5 921.5C2783.5 925.918 2779.92 929.5 2775.5 929.5L2337.5 929.5C2333.08 929.5 2329.5 925.918 2329.5 921.5Z" stroke="#2F528F" stroke-width="4.58333" stroke-linecap="butt" stroke-linejoin="miter" stroke-miterlimit="8" stroke-opacity="1" fill="#525252" fill-rule="evenodd" fill-opacity="1"/><text fill="#FFFFFF" fill-opacity="1" font-family="IBM Plex Sans,IBM Plex Sans_MSFontService,sans-serif" font-style="normal" font-variant="normal" font-weight="400" font-stretch="normal" font-size="37" text-anchor="start" direction="ltr" writing-mode="lr-tb" unicode-bidi="normal" text-decoration="none" transform="matrix(1 0 0 1 2424.24 918)">Request Update</text><path d="M0 1.14583-82.5049 1.14583-81.359 0-81.359 204.087-82.5049 202.942 1654.74 202.942 1653.59 204.095 1653.21 143.152 1655.5 143.137 1655.89 205.233-83.6507 205.233-83.6507-1.14583 0-1.14583ZM1641.04 148.876 1652.41 120.31 1668.44 146.546Z" fill="#4472C4" fill-rule="nonzero" fill-opacity="1" transform="matrix(-1 0 0 1 3850.41 692)"/><rect x="2089.5" y="571.5" width="276" height="243" stroke="#2F528F" stroke-width="4.58333" stroke-linecap="butt" stroke-linejoin="miter" stroke-miterlimit="8" stroke-opacity="1" fill="#767171" fill-opacity="1"/><text fill="#FFFFFF" fill-opacity="1" font-family="IBM Plex Sans,IBM Plex Sans_MSFontService,sans-serif" font-style="normal" font-variant="normal" font-weight="400" font-stretch="normal" font-size="48" text-anchor="start" direction="ltr" writing-mode="lr-tb" unicode-bidi="normal" text-decoration="none" transform="matrix(1 0 0 1 2142.06 623)">Landing <tspan fill="#FFFFFF" fill-opacity="1" font-family="IBM Plex Sans,IBM Plex Sans_MSFontService,sans-serif" font-style="normal" font-variant="normal" font-weight="400" font-stretch="normal" font-size="48" text-anchor="start" direction="ltr" writing-mode="lr-tb" unicode-bidi="normal" text-decoration="none" x="30.6626" y="57">Zone </tspan><tspan fill="#FFFFFF" fill-opacity="1" font-family="IBM Plex Sans,IBM Plex Sans_MSFontService,sans-serif" font-style="normal" font-variant="normal" font-weight="400" font-stretch="normal" font-size="48" text-anchor="start" direction="ltr" writing-mode="lr-tb" unicode-bidi="normal" text-decoration="none" x="3.4375" y="115">Catalog </tspan><tspan fill="#FFFFFF" fill-opacity="1" font-family="IBM Plex Sans,IBM Plex Sans_MSFontService,sans-serif" font-style="normal" font-variant="normal" font-weight="400" font-stretch="normal" font-size="48" text-anchor="start" direction="ltr" writing-mode="lr-tb" unicode-bidi="normal" text-decoration="none" x="-15.4688" y="173">Selection</tspan></text><rect x="3207.5" y="574.5" width="266" height="243" stroke="#2F528F" stroke-width="4.58333" stroke-linecap="butt" stroke-linejoin="miter" stroke-miterlimit="8" stroke-opacity="1" fill="#767171" fill-opacity="1"/><text fill="#FFFFFF" fill-opacity="1" font-family="IBM Plex Sans,IBM Plex Sans_MSFontService,sans-serif" font-style="normal" font-variant="normal" font-weight="400" font-stretch="normal" font-size="41" text-anchor="start" direction="ltr" writing-mode="lr-tb" unicode-bidi="normal" text-decoration="none" transform="matrix(1 0 0 1 3284.43 685)">Policy <tspan fill="#FFFFFF" fill-opacity="1" font-family="IBM Plex Sans,IBM Plex Sans_MSFontService,sans-serif" font-style="normal" font-variant="normal" font-weight="400" font-stretch="normal" font-size="41" text-anchor="start" direction="ltr" writing-mode="lr-tb" unicode-bidi="normal" text-decoration="none" x="-22.0457" y="50">Updates</tspan></text><rect x="3585.5" y="571.5" width="265" height="243" stroke="#2F528F" stroke-width="4.58333" stroke-linecap="butt" stroke-linejoin="miter" stroke-miterlimit="8" stroke-opacity="1" fill="#767171" fill-opacity="1"/><text fill="#FFFFFF" fill-opacity="1" font-family="IBM Plex Sans,IBM Plex Sans_MSFontService,sans-serif" font-style="normal" font-variant="normal" font-weight="400" font-stretch="normal" font-size="46" text-anchor="start" direction="ltr" writing-mode="lr-tb" unicode-bidi="normal" text-decoration="none" transform="matrix(1 0 0 1 3694.31 680)">CI <tspan fill="#FFFFFF" fill-opacity="1" font-family="IBM Plex Sans,IBM Plex Sans_MSFontService,sans-serif" font-style="normal" font-variant="normal" font-weight="400" font-stretch="normal" font-size="46" text-anchor="start" direction="ltr" writing-mode="lr-tb" unicode-bidi="normal" text-decoration="none" x="-51.2644" y="55">Update</tspan></text><path d="M3095 680.854 3176.74 680.854 3176.74 683.146 3095 683.146ZM3172.16 668.25 3199.66 682 3172.16 695.75Z" fill="#4472C4" fill-rule="nonzero" fill-opacity="1"/><path d="M3478 675.854 3559.74 675.854 3559.74 678.146 3478 678.146ZM3555.16 663.25 3582.66 677 3555.16 690.75Z" fill="#4472C4" fill-rule="nonzero" fill-opacity="1"/></g></svg>